<svg xmlns="http://www.w3.org/2000/svg" viewBox="0 0 512 512">
  <defs>
    <radialGradient id="bg" cx="30%" cy="22%" r="110%">
      <stop offset="0%" stop-color="#2a2013"/>
      <stop offset="55%" stop-color="#120e08"/>
      <stop offset="100%" stop-color="#0a0806"/>
    </radialGradient>
    <linearGradient id="gold" x1="0" y1="0" x2="1" y2="1">
      <stop offset="0%" stop-color="#f0d98c"/>
      <stop offset="55%" stop-color="#d4af37"/>
      <stop offset="100%" stop-color="#9c7a1e"/>
    </linearGradient>
  </defs>
  <rect width="512" height="512" rx="112" fill="url(#bg)"/>
  <circle cx="256" cy="256" r="168" fill="none" stroke="url(#gold)" stroke-width="10"/>
  <circle cx="256" cy="256" r="146" fill="none" stroke="#d4af37" stroke-width="2" opacity="0.45"/>
  <!-- concierge bell -->
  <g fill="url(#gold)">
    <path d="M256 168c8 0 14 6 14 14v8c44 7 78 43 82 88h-192c4-45 38-81 82-88v-8c0-8 6-14 14-14z"/>
    <rect x="146" y="290" width="220" height="18" rx="9"/>
    <circle cx="256" cy="160" r="12"/>
  </g>
  <!-- sparkle -->
  <path d="M362 128l7 20 20 7-20 7-7 20-7-20-20-7 20-7z" fill="#f0d98c"/>
</svg>
