<svg xmlns="http://www.w3.org/2000/svg" viewBox="0 0 512 512">
  <defs>
    <radialGradient id="bg" cx="50%" cy="38%" r="75%">
      <stop offset="0%" stop-color="#1a2138"/>
      <stop offset="100%" stop-color="#05060a"/>
    </radialGradient>
    <linearGradient id="red" x1="0" y1="0" x2="0" y2="1">
      <stop offset="0%" stop-color="#ff4b4b"/>
      <stop offset="100%" stop-color="#b81f1f"/>
    </linearGradient>
  </defs>
  <rect width="512" height="512" fill="url(#bg)"/>
  <!-- speedo arc -->
  <path d="M120 320 A150 150 0 0 1 392 320" fill="none" stroke="#2a3450" stroke-width="34" stroke-linecap="round"/>
  <path d="M120 320 A150 150 0 0 1 300 196" fill="none" stroke="url(#red)" stroke-width="34" stroke-linecap="round"/>
  <!-- needle -->
  <g stroke="#ffd400" stroke-width="16" stroke-linecap="round">
    <line x1="256" y1="320" x2="330" y2="232"/>
  </g>
  <circle cx="256" cy="320" r="22" fill="#ffd400"/>
  <!-- checkered banner -->
  <g transform="translate(150,372)">
    <rect width="212" height="40" rx="6" fill="#0d101a"/>
    <g fill="#e9e9ee">
      <rect x="8"  y="8"  width="16" height="16"/><rect x="40" y="8"  width="16" height="16"/><rect x="72" y="8"  width="16" height="16"/>
      <rect x="104" y="8" width="16" height="16"/><rect x="136" y="8" width="16" height="16"/><rect x="168" y="8" width="16" height="16"/>
      <rect x="24" y="22" width="16" height="14"/><rect x="56" y="22" width="16" height="14"/><rect x="88" y="22" width="16" height="14"/>
      <rect x="120" y="22" width="16" height="14"/><rect x="152" y="22" width="16" height="14"/><rect x="184" y="22" width="16" height="14"/>
    </g>
  </g>
</svg>
