<svg xmlns="http://www.w3.org/2000/svg" viewBox="0 0 512 512">
  <defs>
    <linearGradient id="g" x1="0" y1="1" x2="1" y2="0">
      <stop offset="0" stop-color="#6e8bff"/>
      <stop offset="0.5" stop-color="#8b7cff"/>
      <stop offset="1" stop-color="#39e6b4"/>
    </linearGradient>
    <radialGradient id="bg" cx="0.5" cy="0.32" r="0.9">
      <stop offset="0" stop-color="#161b2e"/>
      <stop offset="1" stop-color="#080a14"/>
    </radialGradient>
  </defs>
  <rect width="512" height="512" rx="112" fill="url(#bg)"/>
  <!-- ripples spreading from the corner -->
  <circle cx="392" cy="128" r="58" fill="none" stroke="#39e6b4" stroke-width="10" opacity="0.5"/>
  <circle cx="392" cy="128" r="92" fill="none" stroke="#39e6b4" stroke-width="8" opacity="0.22"/>
  <!-- speech bubble + tail -->
  <path d="M196,150 H316 a60,60 0 0 1 60,60 V270 a60,60 0 0 1 -60,60 H210
           a60,60 0 0 1 -60,-60 V210 a60,60 0 0 1 60,-60 Z" fill="url(#g)"/>
  <path d="M198,318 L150,394 L240,326 Z" fill="url(#g)"/>
  <!-- typing dots knocked out of the bubble -->
  <circle cx="196" cy="240" r="20" fill="#0c1020"/>
  <circle cx="256" cy="240" r="20" fill="#0c1020"/>
  <circle cx="316" cy="240" r="20" fill="#0c1020"/>
</svg>
